<svg width="39" height="36" viewBox="0 0 39 36" fill="none" xmlns="http://www.w3.org/2000/svg">
<path d="M36.9293 18.9538C37.6237 19.6482 38.0172 20.5895 38.0172 21.5694C38.0172 22.5493 37.6237 23.4906 36.9293 24.185C36.2349 24.8794 35.2936 25.2729 34.3138 25.2729H4.6859C3.70371 25.2729 2.76164 24.8794 2.06723 24.185C1.37283 23.4906 0.982422 22.5493 0.982422 21.5694C0.982422 20.5895 1.37283 19.6482 2.06723 18.9538C2.76164 18.2594 3.70371 17.8659 4.6859 17.8659H34.3138C35.2936 17.8659 36.2349 18.2594 36.9293 18.9538ZM36.4201 28.1045C36.6516 28.336 36.7827 28.6523 36.7827 28.9764V30.2109C36.7827 31.4531 36.2658 32.7802 35.3399 33.706C34.4141 34.6319 33.087 35.1488 31.8448 35.1488H7.15489C5.84556 35.1488 4.58946 34.6319 3.66359 33.706C2.73695 32.7802 2.21692 31.4531 2.21692 30.2109V28.9764C2.21692 28.6523 2.34731 28.336 2.57878 28.1045C2.81024 27.873 3.12427 27.7419 3.45141 27.7419H35.5483C35.8723 27.7419 36.1886 27.873 36.4201 28.1045ZM3.63581 15.15C3.2917 14.9803 2.99079 14.7411 2.75469 14.4402C2.5186 14.1393 2.35502 13.7921 2.27478 13.4217C2.19454 13.0437 2.20148 12.6579 2.2933 12.2876C3.98996 5.59968 11.0513 0.583008 19.4998 0.583008C27.9484 0.583008 35.0082 5.59968 36.7056 12.2876C36.7982 12.6579 36.8059 13.0437 36.721 13.4217C36.6439 13.7921 36.4818 14.1393 36.2427 14.4402C35.9417 14.7411 35.7103 14.9803 35.3631 15.15C35.0236 15.3121 34.6455 15.3969 34.2598 15.3969H4.7376C4.35645 15.3969 3.97916 15.3121 3.63581 15.15ZM28.5039 7.11811C28.2725 7.34958 28.1413 7.66592 28.1413 7.98997C28.1413 8.23687 28.2107 8.47605 28.3496 8.67666C28.4885 8.87726 28.6119 9.03929 28.9051 9.13188C29.1289 9.15503 29.3758 9.24761 29.615 9.20132C29.8542 9.15503 30.0779 9.03929 30.2476 8.86183C30.4251 8.69209 30.5408 8.46834 30.5871 8.22916C30.6334 7.98997 30.5408 7.74307 30.5177 7.51932C30.4251 7.22613 30.2631 7.10268 30.0625 6.9638C29.8619 6.82492 29.6227 6.68604 29.3758 6.68604C29.0517 6.68604 28.7354 6.88664 28.5039 7.11811ZM18.628 4.64835C18.3965 4.87982 18.2653 5.19384 18.2653 5.52098C18.2653 5.7648 18.3348 6.00707 18.4737 6.20767C18.6125 6.40828 18.736 6.5703 19.0292 6.66289C19.2529 6.68604 19.4998 6.77863 19.739 6.73233C19.9782 6.68604 20.202 6.5703 20.3717 6.39285C20.5492 6.2231 20.6649 5.99935 20.7112 5.76171C20.7575 5.52253 20.6649 5.27409 20.6417 5.04879C20.5492 4.82272 20.3871 4.62983 20.1865 4.49481C19.9859 4.35902 19.7467 4.21705 19.4998 4.21705C19.1758 4.21705 18.8594 4.41688 18.628 4.64835ZM8.75202 7.11811C8.52055 7.34958 8.38939 7.66592 8.38939 7.98997C8.38939 8.23687 8.45883 8.47605 8.59771 8.67666C8.73659 8.87726 8.86004 9.03929 9.15323 9.13188C9.37698 9.15503 9.62388 9.24761 9.86306 9.20132C10.1022 9.15503 10.326 9.03929 10.4957 8.86183C10.6732 8.69209 10.7889 8.46834 10.8352 8.22916C10.8815 7.98997 10.7889 7.74307 10.7658 7.51932C10.6732 7.22613 10.5112 7.10268 10.3106 6.9638C10.11 6.82492 9.87078 6.68604 9.62388 6.68604C9.29983 6.68604 8.98349 6.88664 8.75202 7.11811Z" fill="#FFCC00"/>
</svg>
