<svg width="30" height="31" viewBox="0 0 30 31" fill="none" xmlns="http://www.w3.org/2000/svg">
<path d="M14.9204 9.24316C11.2167 9.24316 8.14795 12.259 8.14795 16.0157C8.14795 19.7723 11.1638 22.7881 14.9204 22.7881C18.6771 22.7881 21.6929 19.7194 21.6929 16.0157C21.6929 12.3119 18.6241 9.24316 14.9204 9.24316ZM14.9204 20.3543C12.5395 20.3543 10.5818 18.3966 10.5818 16.0157C10.5818 13.6347 12.5395 11.677 14.9204 11.677C17.3014 11.677 19.2591 13.6347 19.2591 16.0157C19.2591 18.3966 17.3014 20.3543 14.9204 20.3543Z" fill="black"/>
<path d="M21.9577 10.6188C22.8052 10.6188 23.4921 9.93186 23.4921 9.08444C23.4921 8.23702 22.8052 7.55005 21.9577 7.55005C21.1103 7.55005 20.4233 8.23702 20.4233 9.08444C20.4233 9.93186 21.1103 10.6188 21.9577 10.6188Z" fill="black"/>
<path d="M25.9258 5.11609C24.5501 3.68752 22.5925 2.94678 20.3703 2.94678H9.47079C4.86761 2.94678 1.79883 6.01556 1.79883 10.6187V21.4653C1.79883 23.7404 2.53957 25.6981 4.02105 27.1267C5.44962 28.5023 7.35438 29.1902 9.5237 29.1902H20.3173C22.5925 29.1902 24.4972 28.4494 25.8729 27.1267C27.3015 25.751 28.0422 23.7933 28.0422 21.5182V10.6187C28.0422 8.39651 27.3015 6.49175 25.9258 5.11609ZM25.7142 21.5182C25.7142 23.1584 25.1322 24.4812 24.1798 25.3806C23.2274 26.2801 21.9046 26.7563 20.3173 26.7563H9.5237C7.93639 26.7563 6.61364 26.2801 5.66126 25.3806C4.70888 24.4283 4.23269 23.1055 4.23269 21.4653V10.6187C4.23269 9.03143 4.70888 7.70868 5.66126 6.7563C6.56073 5.85683 7.93639 5.38064 9.5237 5.38064H20.4232C22.0105 5.38064 23.3332 5.85683 24.2856 6.80921C25.1851 7.76159 25.7142 9.08434 25.7142 10.6187V21.5182Z" fill="black"/>
</svg>
